<svg xmlns="http://www.w3.org/2000/svg" xmlns:xlink="http://www.w3.org/1999/xlink" width="300" zoomAndPan="magnify" viewBox="0 0 224.87999 225" height="300" preserveAspectRatio="xMidYMid meet" version="1.2"><defs><clipPath id="9d1b216618"><path d="M 0 0.0585938 L 224.761719 0.0585938 L 224.761719 224.9375 L 0 224.9375 Z M 0 0.0585938 "/></clipPath><clipPath id="fa83581312"><path d="M 112.441406 0.0585938 C 50.339844 0.0585938 0 50.402344 0 112.5 C 0 174.597656 50.339844 224.941406 112.441406 224.941406 C 174.539062 224.941406 224.878906 174.597656 224.878906 112.5 C 224.878906 50.402344 174.539062 0.0585938 112.441406 0.0585938 Z M 112.441406 0.0585938 "/></clipPath><clipPath id="d653c3e90f"><path d="M 49.859375 45.027344 L 175.042969 45.027344 L 175.042969 179.953125 L 49.859375 179.953125 Z M 49.859375 45.027344 "/></clipPath></defs><g id="5171d0dd51"><g clip-rule="nonzero" clip-path="url(#9d1b216618)"><g clip-rule="nonzero" clip-path="url(#fa83581312)"><path style=" stroke:none;fill-rule:nonzero;fill:#101010;fill-opacity:1;" d="M 0 0.0585938 L 224.878906 0.0585938 L 224.878906 224.941406 L 0 224.941406 Z M 0 0.0585938 "/></g></g><g clip-rule="nonzero" clip-path="url(#d653c3e90f)"><path style=" stroke:none;fill-rule:nonzero;fill:#fafafa;fill-opacity:1;" d="M 155.085938 45.027344 L 112.441406 95.054688 L 97.578125 112.488281 L 72.496094 141.917969 L 72.496094 83.0625 L 91.125 104.917969 L 105.984375 87.484375 L 69.792969 45.027344 L 49.875 52.363281 L 49.875 172.617188 L 69.792969 179.953125 L 112.441406 129.925781 L 127.300781 112.488281 L 152.382812 83.0625 L 152.382812 141.917969 L 133.753906 120.0625 L 118.894531 137.496094 L 155.085938 179.953125 L 175.003906 172.617188 L 175.003906 52.363281 L 155.085938 45.027344 "/></g></g></svg>